<svg width="30" height="30" viewBox="0 0 30 30" fill="none" xmlns="http://www.w3.org/2000/svg">
<path d="M26.45 6.36H23.64V3.55C23.64 2.60848 23.266 1.70552 22.6002 1.03977C21.9345 0.374017 21.0315 0 20.09 0H3.55C2.60848 0 1.70552 0.374017 1.03977 1.03977C0.374017 1.70552 0 2.60848 0 3.55V20.09C0 21.0315 0.374017 21.9345 1.03977 22.6002C1.70552 23.266 2.60848 23.64 3.55 23.64H6.36V26.45C6.36 26.9162 6.45182 27.3778 6.63023 27.8085C6.80863 28.2392 7.07012 28.6306 7.39977 28.9602C7.72942 29.2899 8.12077 29.5514 8.55147 29.7298C8.98218 29.9082 9.44381 30 9.91 30H26.45C26.9162 30 27.3778 29.9082 27.8085 29.7298C28.2392 29.5514 28.6306 29.2899 28.9602 28.9602C29.2899 28.6306 29.5514 28.2392 29.7298 27.8085C29.9082 27.3778 30 26.9162 30 26.45V9.91C30 9.44381 29.9082 8.98218 29.7298 8.55147C29.5514 8.12077 29.2899 7.72942 28.9602 7.39977C28.6306 7.07012 28.2392 6.80863 27.8085 6.63023C27.3778 6.45182 26.9162 6.36 26.45 6.36ZM28 26.45C28.0013 26.6539 27.9621 26.8561 27.8847 27.0447C27.8073 27.2334 27.6932 27.4048 27.549 27.549C27.4048 27.6932 27.2334 27.8073 27.0447 27.8847C26.8561 27.9621 26.6539 28.0013 26.45 28H9.91C9.70645 28 9.5049 27.9599 9.31684 27.882C9.12879 27.8041 8.95792 27.6899 8.81398 27.546C8.67005 27.4021 8.55588 27.2312 8.47799 27.0432C8.40009 26.8551 8.36 26.6535 8.36 26.45V9.91C8.36262 9.49972 8.52677 9.107 8.81688 8.81688C9.107 8.52677 9.49972 8.36262 9.91 8.36H26.45C26.6535 8.36 26.8551 8.40009 27.0432 8.47799C27.2312 8.55588 27.4021 8.67005 27.546 8.81398C27.6899 8.95792 27.8041 9.12879 27.882 9.31684C27.9599 9.5049 28 9.70645 28 9.91V26.45Z" fill="#FCF4ED"/>
<path d="M23.2701 17.1798H19.1801V13.0898C19.1801 12.8246 19.0747 12.5703 18.8872 12.3827C18.6997 12.1952 18.4453 12.0898 18.1801 12.0898C17.9149 12.0898 17.6605 12.1952 17.473 12.3827C17.2854 12.5703 17.1801 12.8246 17.1801 13.0898V17.1798H13.0901C12.8249 17.1798 12.5705 17.2852 12.383 17.4727C12.1954 17.6603 12.0901 17.9146 12.0901 18.1798C12.0901 18.4451 12.1954 18.6994 12.383 18.8869C12.5705 19.0745 12.8249 19.1798 13.0901 19.1798H17.1801V23.2698C17.1801 23.5351 17.2854 23.7894 17.473 23.9769C17.6605 24.1645 17.9149 24.2698 18.1801 24.2698C18.4453 24.2698 18.6997 24.1645 18.8872 23.9769C19.0747 23.7894 19.1801 23.5351 19.1801 23.2698V19.1798H23.2701C23.5353 19.1798 23.7897 19.0745 23.9772 18.8869C24.1647 18.6994 24.2701 18.4451 24.2701 18.1798C24.2701 17.9146 24.1647 17.6603 23.9772 17.4727C23.7897 17.2852 23.5353 17.1798 23.2701 17.1798Z" fill="#FCF4ED"/>
</svg>
