<svg width="50" height="50" viewBox="0 0 50 50" fill="none" xmlns="http://www.w3.org/2000/svg">
<path fill-rule="evenodd" clip-rule="evenodd" d="M25.0094 0C11.2282 0 0 11.2128 0 24.9981C0 38.7835 11.2282 50 25.0094 50C38.7906 50 50 38.7835 50 24.9981C50 11.2128 38.7906 0 25.0094 0ZM25.0094 3.83141C36.7125 3.83141 46.1547 13.2915 46.1547 24.9981C46.1547 36.7047 36.7125 46.1536 25.0094 46.1536C13.3063 46.1536 3.84529 36.7047 3.84529 24.9981C3.84529 13.2915 13.3063 3.83141 25.0094 3.83141ZM29.8047 12.4934C29.5519 12.4805 29.299 12.5176 29.0606 12.6027C28.8222 12.6878 28.6029 12.8192 28.4153 12.9892L15.6816 24.5323C15.4826 24.7126 15.3235 24.9326 15.2147 25.1781C15.1059 25.4237 15.0496 25.6893 15.0496 25.9578C15.0496 26.2264 15.1059 26.492 15.2147 26.7375C15.3235 26.983 15.4826 27.203 15.6816 27.3834L28.4153 38.9264C28.7941 39.2664 29.2922 39.4423 29.8004 39.4156C30.3087 39.3888 30.7855 39.1616 31.1265 38.7837C31.4683 38.4067 31.6468 37.9096 31.6228 37.4013C31.5989 36.8929 31.3745 36.4148 30.9989 36.0716L19.8423 25.9635L30.9989 15.844C31.3745 15.5009 31.5989 15.0227 31.6228 14.5144C31.6468 14.0061 31.4683 13.509 31.1265 13.132C30.7877 12.7526 30.3124 12.523 29.8047 12.4934Z" fill="#70B079"/>
</svg>
