<svg width="41" height="52" viewBox="0 0 41 52" fill="none" xmlns="http://www.w3.org/2000/svg">
<path d="M38.8181 19.5358L37.2464 18.6145L37.951 18.0183C38.5471 17.5305 38.8723 16.8259 38.8723 16.0672V11.5688C38.8723 10.7016 38.3845 9.88869 37.68 9.45511L23.4261 0.891933C22.5047 0.349959 21.3666 0.404157 20.5536 1.10872L1.90975 16.1214C1.31358 16.6092 0.988394 17.3137 0.988394 18.0725V22.5709C0.988394 23.438 1.47617 24.251 2.18073 24.7388L3.75246 25.6601L3.04789 26.2021C2.45172 26.6899 2.12654 27.3944 2.12654 28.1532V32.6516C2.12654 33.5187 2.61431 34.3317 3.37308 34.8195L1.58456 36.7164C1.04259 37.2583 0.771604 38.0171 0.879999 38.7759L1.42197 43.22C1.53037 44.0872 2.07234 44.846 2.8853 45.1711L17.4644 51.6748C17.898 51.8916 18.3857 52 18.8735 52C19.7949 52 20.7162 51.6206 21.3666 50.9702L37.5716 34.2233C38.1135 33.6813 38.3303 32.9225 38.2761 32.1638L37.8968 29.1287L39.1433 28.1532C39.7395 27.6654 40.0647 26.9608 40.0647 26.2021V21.7037C40.0105 20.7823 39.5769 20.0236 38.8181 19.5358ZM18.9277 8.26277L21.5292 6.20327C21.8544 5.93228 22.3421 5.87809 22.7215 6.14907L30.2007 10.6474C30.8511 11.0268 30.9053 11.894 30.3091 12.3818L27.7077 14.4413C27.3825 14.7122 26.8947 14.7664 26.5153 14.5497L19.0361 9.99708C18.4399 9.6177 18.3857 8.75054 18.9277 8.26277ZM3.26468 23.0044C3.10209 22.9502 3.04789 22.7876 3.04789 22.5709V19.1564L16.4888 27.2318C16.8682 27.4486 17.356 27.6112 17.7896 27.6112C18.3315 27.6112 18.8735 27.3944 19.3613 27.0692L36.867 12.9237V16.1214C36.867 16.284 36.8128 16.3924 36.7044 16.5008L18.6025 31.134C18.1147 31.5134 17.4644 31.5676 16.9766 31.2424L3.26468 23.0044ZM36.1082 32.8141L19.9033 49.5611C19.4697 49.9947 18.8193 50.1031 18.2773 49.8863L3.75246 43.3826C3.58986 43.3284 3.48147 43.1658 3.42727 43.0032L3.04789 39.643L17.356 46.0383C17.6812 46.2009 18.0605 46.2551 18.3857 46.2551C19.0361 46.2551 19.6865 45.9841 20.1742 45.4963L29.0084 36.3912L36.0541 30.7005L36.2708 32.489C36.2708 32.5432 36.2166 32.7058 36.1082 32.8141ZM38.0052 26.2021C38.0052 26.3647 37.951 26.4731 37.8426 26.5815L19.7407 41.2147C19.2529 41.5941 18.6025 41.6483 18.1147 41.3231L4.40282 33.0851C4.24023 33.0309 4.18604 32.8683 4.18604 32.6516V29.2371L17.627 37.3125C18.0063 37.5293 18.4941 37.6919 18.9277 37.6919C19.4697 37.6919 20.0658 37.5293 20.4994 37.1499L38.0594 23.0044V26.2021H38.0052Z" fill="#FCF4ED"/>
</svg>
