<svg width="49" height="51" viewBox="0 0 49 51" fill="none" xmlns="http://www.w3.org/2000/svg">
<path d="M28.2835 22.8938C28.2835 17.6238 32.5902 13.3171 37.8602 13.3171V11.5038V1.19043H7.20354C4.37021 1.19043 2.04688 3.51376 2.04688 6.3471V44.5971C2.04688 41.7638 4.37021 39.4404 7.20354 39.4404H37.8602V32.4704C32.5902 32.4704 28.2835 28.1638 28.2835 22.8938Z" fill="#345138"/>
<path d="M37.8598 51H7.20314C3.6898 51 0.799805 48.1667 0.799805 44.5967C0.799805 41.0267 3.63314 38.1934 7.20314 38.1934H37.8598C38.5398 38.1934 39.0498 38.7034 39.0498 39.3834V49.7534C39.0498 50.49 38.5398 51 37.8598 51ZM7.20314 40.63C4.99314 40.63 3.23647 42.4434 3.23647 44.5967C3.23647 46.75 5.0498 48.5634 7.20314 48.5634H36.6698V40.63H7.20314Z" fill="#345138"/>
<path d="M1.9898 45.8433C1.3098 45.8433 0.799805 45.3333 0.799805 44.6533V6.40333C0.799805 2.83333 3.6898 0 7.20314 0H37.8598C38.5398 0 39.0498 0.51 39.0498 1.19V13.3167C39.0498 13.9967 38.5398 14.5067 37.8598 14.5067C33.2698 14.5067 29.4731 18.2467 29.4731 22.8933C29.4731 27.54 33.2131 31.28 37.8598 31.28C38.5398 31.28 39.0498 31.79 39.0498 32.47V39.44C39.0498 40.12 38.5398 40.63 37.8598 40.63H7.20314C4.99314 40.63 3.23647 42.4433 3.23647 44.5967C3.1798 45.2767 2.6698 45.8433 1.9898 45.8433ZM7.20314 2.38C4.99314 2.38 3.23647 4.19333 3.23647 6.34667V39.6667C4.31314 38.8167 5.7298 38.25 7.20314 38.25H36.6698V33.6033C31.2865 32.98 27.0931 28.4467 27.0931 22.8933C27.0931 17.34 31.2865 12.8067 36.6698 12.1833V2.38H7.20314Z" fill="#345138"/>
<path d="M37.8599 33.6603C31.9099 33.6603 27.0933 28.8436 27.0933 22.8936C27.0933 16.9436 31.9099 12.127 37.8599 12.127C43.8099 12.127 48.6266 16.9436 48.6266 22.8936C48.6266 28.8436 43.8099 33.6603 37.8599 33.6603ZM37.8599 14.5636C33.2699 14.5636 29.4733 18.3036 29.4733 22.9503C29.4733 27.597 33.2133 31.337 37.8599 31.337C42.5066 31.337 46.2466 27.5403 46.2466 22.8936C46.2466 18.247 42.4499 14.5636 37.8599 14.5636Z" fill="#345138"/>
<path d="M36.8965 26.1792C35.7631 26.1792 34.6865 25.7259 33.8931 24.9325C32.2498 23.2892 32.2498 20.6259 33.8931 18.9259C35.5365 17.2825 38.1998 17.2825 39.8998 18.9259C40.6931 19.7192 41.1465 20.7959 41.1465 21.9292C41.1465 23.0625 40.6931 24.1392 39.8998 24.9325C39.1065 25.7259 38.0298 26.1792 36.8965 26.1792ZM36.8965 20.1159C36.4431 20.1159 35.9331 20.2859 35.5931 20.6825C34.8565 21.4192 34.8565 22.5525 35.5931 23.2892C36.2731 23.9692 37.5198 23.9692 38.1998 23.2892C38.5398 22.9492 38.7665 22.4959 38.7665 21.9859C38.7665 21.4759 38.5965 21.0225 38.1998 20.6825C37.8598 20.2859 37.4065 20.1159 36.8965 20.1159Z" fill="#345138"/>
<path d="M41.826 28.1069C41.5427 28.1069 41.2027 27.9936 40.976 27.7669L38.1994 24.9336C37.746 24.4802 37.746 23.6869 38.1994 23.2336C38.6527 22.7802 39.446 22.7802 39.8994 23.2336L42.676 26.0102C43.1294 26.4636 43.1294 27.2569 42.676 27.7102C42.4494 27.9936 42.166 28.1069 41.826 28.1069Z" fill="#345138"/>
</svg>
