<svg width="50" height="41" viewBox="0 0 50 41" fill="none" xmlns="http://www.w3.org/2000/svg">
<path d="M1.98635 34.2337C2.98849 34.1046 4.02643 34.0492 5.10017 34.0308C6.24548 33.9939 7.44451 34.0308 8.67927 34.1415C11.1489 34.326 13.7616 34.7503 16.5355 35.4146H16.5534C18.683 35.9312 20.8842 36.5954 23.2106 37.4073V36.0788C23.2106 36.0234 23.2106 35.9865 23.2285 35.9496H23.2106V3.19908C22.2442 2.81161 21.2957 2.44262 20.3294 2.12892C14.1556 0.0439964 7.85639 -0.509591 1.52109 0.468338C0.644238 0.597495 0 1.3724 0 2.29501V32.3886C0 32.9237 0.214746 33.4219 0.590523 33.7725C0.966301 34.1231 1.48527 34.2891 1.98635 34.2337Z" fill="#DBBD54"/>
<path d="M48.4789 0.468318C42.1441 -0.509552 35.8449 0.0439468 29.6705 2.1289C28.7042 2.44257 27.7557 2.81156 26.7894 3.19906V35.8758H26.7715C26.7894 35.9496 26.7894 36.005 26.7894 36.0788V37.4072C29.1158 36.5954 31.3169 35.9312 33.4465 35.4145H33.4644C36.2382 34.7503 38.8509 34.3259 41.3207 34.1415C42.5554 34.0308 43.7545 33.9939 44.8998 34.0308C45.9735 34.0492 47.0115 34.1046 48.0136 34.2337C48.5147 34.2891 49.0336 34.123 49.4095 33.7724C49.7853 33.4219 50 32.9237 50 32.3886V2.29496C50 1.37241 49.3557 0.597505 48.4789 0.468318Z" fill="#DBBD54"/>
<path d="M8.42866 37.8129C7.55181 37.7391 6.74649 37.7021 5.95908 37.7021C5.70855 37.7021 5.45801 37.7021 5.20747 37.7206H5.1001V38.6431C5.1001 39.1782 5.31484 39.6948 5.70855 40.0454C6.04856 40.3406 6.46016 40.4882 6.88965 40.4882C6.96123 40.4882 7.05071 40.4882 7.14019 40.4698L16.3565 39.1597C16.2313 39.1228 16.106 39.1044 15.9807 39.0675L15.7302 39.0121C13.1354 38.3848 10.6835 37.9973 8.42866 37.8129Z" fill="#DBBD54"/>
<path d="M43.1104 40.4882C43.5399 40.4882 43.9515 40.3406 44.2915 40.0454C44.6852 39.6948 44.9 39.1782 44.9 38.6431V37.7206H44.8463C44.5421 37.7021 44.2915 37.7021 44.041 37.7021C43.2536 37.7021 42.4484 37.7391 41.6251 37.8129C39.3166 37.9974 36.8649 38.3848 34.2699 39.0121L33.8762 39.1044C33.8046 39.1228 33.733 39.1413 33.6436 39.1597L42.8599 40.4698C42.9494 40.4882 43.0388 40.4882 43.1104 40.4882Z" fill="#DBBD54"/>
</svg>
