<svg width="34" height="46" viewBox="0 0 34 46" fill="none" xmlns="http://www.w3.org/2000/svg">
<path fill-rule="evenodd" clip-rule="evenodd" d="M0 5.7C0 2.55198 2.53705 0 5.66667 0H26.9167C27.6991 0 28.3333 0.637994 28.3333 1.425V8.55H32.5833C33.3658 8.55 34 9.18799 34 9.975V44.175C34 44.962 33.3658 45.6 32.5833 45.6H7.08333C3.17132 45.6 0 42.41 0 38.475V5.98945C0 5.95706 0.00107447 5.92492 0.00318953 5.89307C0.00106878 5.82898 0 5.76461 0 5.7ZM5.66667 8.55H25.5V2.85H5.66667C4.10186 2.85 2.83333 4.12599 2.83333 5.7C2.83333 7.27401 4.10186 8.55 5.66667 8.55ZM9.91667 24.225C9.13427 24.225 8.5 24.863 8.5 25.65C8.5 26.437 9.13427 27.075 9.91667 27.075H15.5833V32.775C15.5833 33.562 16.2176 34.2 17 34.2C17.7824 34.2 18.4167 33.562 18.4167 32.775V27.075H24.0833C24.8658 27.075 25.5 26.437 25.5 25.65C25.5 24.863 24.8658 24.225 24.0833 24.225H18.4167V18.525C18.4167 17.738 17.7824 17.1 17 17.1C16.2176 17.1 15.5833 17.738 15.5833 18.525V24.225H9.91667Z" fill="#70B079"/>
</svg>
