<svg width="50" height="50" viewBox="0 0 50 50" fill="none" xmlns="http://www.w3.org/2000/svg">
<path d="M33.4315 16.5688C33.0057 16.1455 32.4296 15.9079 31.8292 15.9079C31.2288 15.9079 30.6528 16.1455 30.2269 16.5688L24.9997 21.7961L19.7951 16.5688C19.3672 16.1408 18.7867 15.9004 18.1815 15.9004C17.5763 15.9004 16.9958 16.1408 16.5679 16.5688C16.1399 16.9967 15.8995 17.5772 15.8995 18.1824C15.8995 18.7876 16.1399 19.3681 16.5679 19.7961L21.7951 25.0006L16.5679 30.2051C16.3299 30.4089 16.1367 30.6596 16.0003 30.9416C15.8639 31.2235 15.7872 31.5307 15.7751 31.8437C15.763 32.1567 15.8158 32.4688 15.93 32.7604C16.0443 33.0521 16.2176 33.3169 16.4391 33.5384C16.6606 33.7599 16.9255 33.9332 17.2171 34.0475C17.5088 34.1618 17.8209 34.2145 18.1339 34.2024C18.4469 34.1903 18.754 34.1137 19.036 33.9772C19.3179 33.8408 19.5687 33.6476 19.7724 33.4097L24.9997 28.2051L30.2042 33.4097C30.639 33.782 31.1983 33.9766 31.7702 33.9545C32.3422 33.9324 32.8848 33.6953 33.2896 33.2905C33.6943 32.8858 33.9315 32.3432 33.9536 31.7712C33.9757 31.1992 33.7811 30.6399 33.4088 30.2051L28.2042 25.0006L33.4088 19.7961C33.6233 19.5863 33.7941 19.3361 33.9115 19.06C34.0288 18.7838 34.0903 18.4872 34.0924 18.1872C34.0945 17.8871 34.0372 17.5896 33.9238 17.3119C33.8103 17.0341 33.643 16.7816 33.4315 16.5688Z" fill="#70B079"/>
<path d="M25 0C20.0555 0 15.222 1.46622 11.1108 4.21326C6.99953 6.96029 3.79521 10.8648 1.90302 15.4329C0.0108322 20.0011 -0.484251 25.0277 0.480379 29.8773C1.44501 34.7268 3.82603 39.1813 7.32234 42.6777C10.8187 46.174 15.2732 48.555 20.1227 49.5196C24.9723 50.4842 29.9989 49.9892 34.5671 48.097C39.1352 46.2048 43.0397 43.0005 45.7867 38.8892C48.5338 34.778 50 29.9445 50 25C50 18.3696 47.3661 12.0107 42.6777 7.32233C37.9893 2.63392 31.6304 0 25 0ZM25 45.4545C20.9545 45.4545 16.9998 44.2549 13.6361 42.0073C10.2723 39.7598 7.65063 36.5652 6.10247 32.8276C4.55432 29.09 4.14925 24.9773 4.93849 21.0095C5.72774 17.0417 7.67584 13.3971 10.5365 10.5364C13.3971 7.67583 17.0417 5.72772 21.0095 4.93848C24.9773 4.14924 29.09 4.55431 32.8276 6.10246C36.5652 7.65062 39.7598 10.2723 42.0073 13.6361C44.2549 16.9998 45.4545 20.9545 45.4545 25C45.4545 30.4249 43.2995 35.6276 39.4636 39.4635C35.6276 43.2995 30.4249 45.4545 25 45.4545Z" fill="#70B079"/>
</svg>
