<svg width="30" height="35" viewBox="0 0 30 35" fill="none" xmlns="http://www.w3.org/2000/svg">
<path d="M2.71777 7.94141L4.48248 31.3591C4.54457 32.1862 4.91588 32.9596 5.5225 33.5254C6.12911 34.0911 6.92654 34.4077 7.75601 34.412H22.5619C23.4039 34.4113 24.2139 34.0897 24.827 33.5127C25.4402 32.9356 25.8103 32.1465 25.8619 31.3061L27.2825 7.94141H2.71777ZM12.3531 27.5032C12.3531 27.6974 12.2759 27.8837 12.1386 28.021C12.0012 28.1584 11.8149 28.2355 11.6207 28.2355H10.4384C10.2441 28.2355 10.0579 28.1584 9.92051 28.021C9.78317 27.8837 9.70601 27.6974 9.70601 27.5032V13.0855C9.70601 12.8913 9.78317 12.705 9.92051 12.5677C10.0579 12.4303 10.2441 12.3532 10.4384 12.3532H11.6207C11.8149 12.3532 12.0012 12.4303 12.1386 12.5677C12.2759 12.705 12.3531 12.8913 12.3531 13.0855V27.5032ZM20.2942 27.5032C20.2942 27.6974 20.2171 27.8837 20.0797 28.021C19.9424 28.1584 19.7561 28.2355 19.5619 28.2355H18.3795C18.1853 28.2355 17.999 28.1584 17.8617 28.021C17.7243 27.8837 17.6472 27.6974 17.6472 27.5032V13.0855C17.6472 12.8913 17.7243 12.705 17.8617 12.5677C17.999 12.4303 18.1853 12.3532 18.3795 12.3532H19.5619C19.7561 12.3532 19.9424 12.4303 20.0797 12.5677C20.2171 12.705 20.2942 12.8913 20.2942 13.0855V27.5032Z" fill="#CF6D60"/>
<path d="M20.2941 1.32353C20.2941 0.972508 20.1547 0.635863 19.9065 0.387653C19.6583 0.139443 19.3216 0 18.9706 0H11.0294C10.6784 0 10.3417 0.139443 10.0935 0.387653C9.84533 0.635863 9.70588 0.972508 9.70588 1.32353C9.70588 1.67455 9.56644 2.0112 9.31823 2.25941C9.07002 2.50762 8.73337 2.64706 8.38235 2.64706H1.32353C0.972508 2.64706 0.635863 2.7865 0.387653 3.03471C0.139443 3.28292 0 3.61957 0 3.97059V4.85294C0 5.20396 0.139443 5.54061 0.387653 5.78882C0.635863 6.03703 0.972508 6.17647 1.32353 6.17647H28.6765C29.0275 6.17647 29.3641 6.03703 29.6123 5.78882C29.8606 5.54061 30 5.20396 30 4.85294V3.97059C30 3.61957 29.8606 3.28292 29.6123 3.03471C29.3641 2.7865 29.0275 2.64706 28.6765 2.64706H21.6176C21.2666 2.64706 20.93 2.50762 20.6818 2.25941C20.4336 2.0112 20.2941 1.67455 20.2941 1.32353Z" fill="#CF6D60"/>
</svg>
