<svg width="40" height="40" viewBox="0 0 40 40" fill="none" xmlns="http://www.w3.org/2000/svg">
<path d="M38.5858 6.97814C39.3668 6.19709 39.3668 4.93077 38.5858 4.14972L35.8503 1.41421C35.0692 0.633165 33.8029 0.633165 33.0219 1.41421L21.4142 13.0219C20.6332 13.8029 19.3668 13.8029 18.5858 13.0219L6.97814 1.41421C6.19709 0.633163 4.93077 0.633165 4.14972 1.41421L1.41421 4.14972C0.633165 4.93077 0.633165 6.1971 1.41421 6.97815L13.0219 18.5858C13.8029 19.3668 13.8029 20.6332 13.0219 21.4142L1.41421 33.0219C0.633163 33.8029 0.633165 35.0692 1.41421 35.8503L4.14972 38.5858C4.93077 39.3668 6.1971 39.3668 6.97815 38.5858L18.5858 26.9781C19.3668 26.1971 20.6332 26.1971 21.4142 26.9781L33.0219 38.5858C33.8029 39.3668 35.0692 39.3668 35.8503 38.5858L38.5858 35.8503C39.3668 35.0692 39.3668 33.8029 38.5858 33.0219L26.9781 21.4142C26.1971 20.6332 26.1971 19.3668 26.9781 18.5858L38.5858 6.97814Z" fill="#CF6D60"/>
</svg>
