<svg width="19" height="20" viewBox="0 0 19 20" fill="none" xmlns="http://www.w3.org/2000/svg">
<path fill-rule="evenodd" clip-rule="evenodd" d="M14.5854 0C14.8506 0 15.1049 0.10536 15.2925 0.29289L18.7071 3.70753C19.0976 4.09805 19.0976 4.73122 18.7071 5.12174L8.4632 15.3656C8.2978 15.5311 8.0796 15.6333 7.8466 15.6544L4.09054 15.9959C3.79498 16.0228 3.50275 15.917 3.2929 15.7071C3.08304 15.4973 2.97724 15.205 3.00411 14.9095L3.34557 11.1534C3.36675 10.9204 3.46894 10.7022 3.63436 10.5368L13.8783 0.29289C14.0658 0.10536 14.3202 0 14.5854 0ZM12.9264 4.07317L14.9268 6.07359L16.5858 4.41463L14.5854 2.41421L12.9264 4.07317ZM13.5126 7.48781L11.5122 5.48738L5.30458 11.695L5.10454 13.8955L7.305 13.6954L13.5126 7.48781Z" fill="#70B079"/>
<path fill-rule="evenodd" clip-rule="evenodd" d="M12 20H0V18H12V20Z" fill="#70B079"/>
</svg>
