<svg width="50" height="50" viewBox="0 0 50 50" fill="none" xmlns="http://www.w3.org/2000/svg">
<path d="M25 0C11.2149 0 0 11.2149 0 25C0 38.7851 11.2149 50 25 50C38.7851 50 50 38.7851 50 25C50 11.2149 38.7851 0 25 0ZM25 47.397C12.6503 47.397 2.60303 37.3497 2.60303 25C2.60303 12.6503 12.6503 2.60303 25 2.60303C37.3497 2.60303 47.397 12.6503 47.397 25C47.397 37.3497 37.3497 47.397 25 47.397Z" fill="#70B079"/>
<path d="M33.101 11.1804C32.4798 10.8147 31.6798 11.0226 31.3144 11.6443C30.949 12.266 31.1565 13.0665 31.7779 13.4321C35.8563 15.8322 38.3898 20.2606 38.3898 24.9893C38.3898 32.3775 32.3833 38.388 25 38.388C17.6168 38.388 11.6102 32.3773 11.6102 24.9893C11.6102 20.2606 14.1437 15.8322 18.2221 13.4321C18.8435 13.0666 19.051 12.266 18.6856 11.6443C18.3203 11.0225 17.5205 10.815 16.899 11.1804C12.0267 14.0479 9 19.3391 9 24.9893C9 33.8177 16.1776 41 25.0001 41C33.8227 41 41.0002 33.8177 41 24.9893C41 19.3392 37.9733 14.0479 33.101 11.1804Z" fill="#70B079"/>
<path d="M25 7C24.4477 7 24 7.58299 24 8.302V24.698C24 25.4171 24.4477 26 25 26C25.5523 26 26 25.4171 26 24.698V8.302C26 7.58307 25.5523 7 25 7Z" fill="#70B079"/>
</svg>
