<svg width="48" height="49" viewBox="0 0 48 49" fill="none" xmlns="http://www.w3.org/2000/svg">
<path d="M44.7365 21.4308H27.2171V3.81873C27.2171 2.03425 25.8218 0.637695 24.0388 0.637695C22.2559 0.637695 20.8605 2.03425 20.8605 3.81873V21.3532H3.34114C1.55819 21.3532 0.162842 22.7498 0.162842 24.5343C0.162842 26.3187 1.55819 27.7153 3.34114 27.7153H20.8605V45.2498C20.8605 47.0342 22.2559 48.4308 24.0388 48.4308C25.8218 48.4308 27.2171 47.0342 27.2171 45.2498V27.7153H44.7365C46.5194 27.7153 47.9148 26.3187 47.9148 24.5343C47.9148 22.7498 46.5194 21.4308 44.7365 21.4308Z" fill="#5B8266"/>
</svg>
