<svg width="66" height="51" viewBox="0 0 66 51" fill="none" xmlns="http://www.w3.org/2000/svg">
<path d="M58.0768 50.4219H7.9439C3.84526 50.4219 0.510742 46.9136 0.510742 42.6011V8.24182C0.510742 3.93019 3.84526 0.421875 7.9439 0.421875H58.0768C62.1755 0.421875 65.5107 3.93019 65.5107 8.24182V42.6003C65.51 46.9136 62.1755 50.4219 58.0768 50.4219ZM3.58338 10.8957V42.6003C3.58338 45.1771 5.53939 47.2739 7.94467 47.2739H58.0768C60.4821 47.2739 62.4389 45.1771 62.4389 42.6003V10.8957L33.0111 27.3782L3.58338 10.8957ZM3.66248 7.35353L33.0111 23.7912L62.359 7.35353C61.9704 5.20008 60.1987 3.56905 58.0768 3.56905H7.9439C5.82277 3.56905 4.05107 5.20008 3.66248 7.35353Z" fill="#70B079"/>
</svg>
