<svg width="55" height="50" viewBox="0 0 55 50" fill="none" xmlns="http://www.w3.org/2000/svg">
<path d="M47.1574 0.97096C46.2636 0.359367 45.1751 0 43.9995 0H5.49992C4.32431 0 3.23576 0.359373 2.34204 0.97096L23.3357 17.3502C24.1996 18.0265 25.2996 18.0265 26.1636 17.3502L47.1574 0.97096Z" fill="#70B079"/>
<path d="M0.210834 3.88379C0.0733325 4.3503 0 4.84584 0 5.35697V29.4641C0 32.4217 2.4635 34.8212 5.49994 34.8212H24.8503C25.7624 26.7859 32.7568 20.5357 41.2492 20.5357C44.2536 20.5357 47.0723 21.3191 49.4989 22.6852V5.35737C49.4989 4.84622 49.4255 4.3507 49.288 3.88419L28.4569 20.1383C26.2524 21.8592 23.2457 21.8592 21.0409 20.1383L0.210834 3.88379Z" fill="#70B079"/>
<path d="M41.2499 24.2139C48.3169 24.2139 54 29.7862 54 36.6069C54 43.4276 48.3175 48.9998 41.2499 48.9998C34.1823 48.9998 28.4998 43.4276 28.4998 36.6069C28.4998 29.7862 34.1823 24.2139 41.2499 24.2139Z" fill="#70B079" stroke="#70B079" stroke-width="2"/>
</svg>
