<svg width="50" height="50" viewBox="0 0 50 50" fill="none" xmlns="http://www.w3.org/2000/svg">
<path fill-rule="evenodd" clip-rule="evenodd" d="M24.9906 50C38.7718 50 50 38.7872 50 25.0019C50 11.2165 38.7718 5.29933e-07 24.9906 5.29933e-07C11.2094 5.29933e-07 1.47017e-06 11.2165 1.47017e-06 25.0019C1.47017e-06 38.7872 11.2094 50 24.9906 50ZM24.9906 46.1686C13.2875 46.1686 3.84529 36.7085 3.84529 25.0019C3.84529 13.2953 13.2875 3.84644 24.9906 3.84644C36.6937 3.84644 46.1547 13.2953 46.1547 25.0019C46.1547 36.7085 36.6937 46.1686 24.9906 46.1686ZM20.1953 37.5066C20.4481 37.5195 20.701 37.4824 20.9394 37.3973C21.1778 37.3122 21.3971 37.1808 21.5847 37.0108L34.3184 25.4677C34.5174 25.2874 34.6765 25.0674 34.7853 24.8219C34.8941 24.5763 34.9504 24.3107 34.9504 24.0422C34.9504 23.7736 34.8941 23.508 34.7853 23.2625C34.6765 23.017 34.5174 22.797 34.3184 22.6166L21.5847 11.0736C21.2059 10.7336 20.7078 10.5577 20.1996 10.5844C19.6913 10.6112 19.2145 10.8384 18.8735 11.2163C18.5317 11.5933 18.3532 12.0904 18.3772 12.5987C18.4011 13.1071 18.6255 13.5852 19.0011 13.9284L30.1577 24.0365L19.0011 34.156C18.6255 34.4991 18.4011 34.9773 18.3772 35.4856C18.3532 35.9939 18.5317 36.491 18.8735 36.868C19.2123 37.2474 19.6876 37.477 20.1953 37.5066Z" fill="#70B079"/>
</svg>
