<svg width="42" height="42" viewBox="0 0 42 42" fill="none" xmlns="http://www.w3.org/2000/svg">
<path d="M21 0.5C9.68576 0.5 0.5 9.68576 0.5 21C0.5 32.3142 9.68576 41.5 21 41.5C32.3142 41.5 41.5 32.3142 41.5 21C41.5 9.68576 32.3142 0.5 21 0.5ZM28.3429 29.819L28.0541 30.1078C28.6208 30.6745 29.5411 30.6745 30.1078 30.1078C30.6745 29.5411 30.6745 28.6208 30.1078 28.0541L22.4524 20.3986V9.57143C22.4524 8.76957 21.8019 8.11905 21 8.11905C20.1981 8.11905 19.5476 8.76957 19.5476 9.57143V21C19.5476 21.3715 19.6876 21.7123 19.9196 21.9704L19.9197 21.9703C19.9246 21.9759 19.9288 21.9804 19.9301 21.9818L19.9338 21.9857L19.9371 21.989L19.9429 21.9949L19.9614 22.0134L20.0303 22.0825L20.2892 22.3417L21.21 23.263L23.9995 26.0531L26.7872 28.841L27.7057 29.7595L27.963 30.0168L28.0308 30.0846L28.0482 30.102L28.0526 30.1064L28.0537 30.1075L28.054 30.1077C28.054 30.1078 28.0541 30.1078 28.3429 29.819ZM21 3.40476C30.7105 3.40476 38.5952 11.2895 38.5952 21C38.5952 30.7105 30.7105 38.5952 21 38.5952C11.2895 38.5952 3.40476 30.7105 3.40476 21C3.40476 11.2895 11.2895 3.40476 21 3.40476Z" fill="#DBBD54" stroke="#DBBD54"/>
</svg>
