<svg width="31" height="28" viewBox="0 0 31 28" fill="none" xmlns="http://www.w3.org/2000/svg">
<path d="M15.5 0.599609C7.22152 0.599609 0.5 6.04328 0.5 12.761C0.5 16.8148 2.96835 20.4439 6.72785 22.6445C6.87975 22.7218 6.9557 22.9534 6.87975 23.1078L5.24684 26.6597C5.09494 26.93 5.39873 27.2389 5.66456 27.1616L12.3861 24.6907C12.4241 24.6521 12.5 24.6521 12.538 24.6907C13.4873 24.8452 14.4747 24.9224 15.5 24.9224C23.7785 24.9224 30.5 19.4787 30.5 12.761C30.5 6.04328 23.7785 0.599609 15.5 0.599609ZM8.20886 15.3477C6.99367 15.3477 6.00633 14.3439 6.00633 13.1085C6.00633 11.873 6.99367 10.8692 8.20886 10.8692C9.42405 10.8692 10.4114 11.873 10.4114 13.1085C10.4494 14.3439 9.46202 15.3477 8.20886 15.3477ZM15.5 15.3477C14.2848 15.3477 13.2975 14.3439 13.2975 13.1085C13.2975 11.873 14.2848 10.8692 15.5 10.8692C16.7152 10.8692 17.7025 11.873 17.7025 13.1085C17.7025 14.3439 16.7152 15.3477 15.5 15.3477ZM22.7911 15.3477C21.5759 15.3477 20.5886 14.3439 20.5886 13.1085C20.5886 11.873 21.5759 10.8692 22.7911 10.8692C24.0063 10.8692 24.9937 11.873 24.9937 13.1085C24.9937 14.3439 24.0063 15.3477 22.7911 15.3477Z" fill="#70B079"/>
</svg>
