<svg width="25" height="25" viewBox="0 0 25 25" fill="none" xmlns="http://www.w3.org/2000/svg">
<path fill-rule="evenodd" clip-rule="evenodd" d="M15.7671 2.75462C16.2094 2.90694 16.64 3.0891 17.0578 3.29999C17.3509 3.45231 17.7005 3.45231 17.9936 3.29999L19.2682 2.6513L19.2672 2.65023C19.669 2.44252 20.1592 2.52028 20.4768 2.8409L22.1629 4.52602V4.52709C22.4837 4.84346 22.5615 5.33342 22.3536 5.73501L21.7046 7.00898V7.00791C21.5511 7.30083 21.5511 7.65022 21.7046 7.94314C21.9145 8.36068 22.0968 8.7921 22.2503 9.23309C22.3504 9.54837 22.5988 9.79551 22.9153 9.89351L24.2795 10.3324C24.7111 10.4676 25.0042 10.8692 25 11.3219V13.7058C24.9957 14.1564 24.6983 14.5526 24.2656 14.6815L22.9014 15.1204C22.5902 15.2194 22.3451 15.4612 22.2439 15.7723C22.0914 16.2143 21.9092 16.6446 21.6982 17.0622C21.5458 17.3562 21.5458 17.7056 21.6982 18.0006L22.3472 19.2714L22.3483 19.2703C22.5561 19.6719 22.4783 20.1619 22.1575 20.4793L20.4715 22.1644H20.4704C20.1539 22.4851 19.6636 22.5628 19.2618 22.3551L17.9871 21.7064H17.9882C17.6951 21.553 17.3455 21.553 17.0525 21.7064C16.6347 21.9163 16.203 22.0984 15.7618 22.2518C15.4463 22.3519 15.1991 22.6001 15.101 22.9165L14.6619 24.2799C14.5265 24.7113 14.1247 25.0042 13.6718 25H11.3005C10.8443 25.0021 10.4415 24.7038 10.3104 24.266L9.87125 22.9026C9.77213 22.5916 9.5302 22.3466 9.219 22.2454C8.7767 22.0931 8.34614 21.9109 7.92834 21.7C7.63419 21.5477 7.28461 21.5477 6.9894 21.7L5.71792 22.3487L5.71898 22.3498C5.31717 22.5575 4.82694 22.4797 4.50933 22.1591L2.82327 20.474V20.4729C2.50247 20.1565 2.42468 19.6666 2.6325 19.265L3.28155 17.991V17.9921C3.43502 17.6992 3.43502 17.3498 3.28155 17.0569C3.07159 16.6393 2.88935 16.2079 2.73587 15.7669C2.63569 15.4516 2.38738 15.2045 2.07083 15.1065L0.720502 14.6815C0.287808 14.5462 -0.0042102 14.1436 4.6068e-05 13.6919V11.308C-0.0042173 10.8564 0.287808 10.4538 0.720502 10.3185L2.08469 9.87963C2.39589 9.78057 2.64104 9.53877 2.74229 9.22774C2.89469 8.78569 3.07695 8.35536 3.28796 7.9378C3.44037 7.64382 3.44037 7.29442 3.28796 6.99937L2.63891 5.7286L2.63784 5.72966C2.43002 5.32808 2.50782 4.83811 2.82862 4.52068L4.51467 2.83556H4.51574C4.83229 2.51493 5.32252 2.43719 5.72433 2.64489L6.999 3.29358H6.99794C7.29102 3.44697 7.64061 3.44697 7.93369 3.29358C8.35146 3.08374 8.78311 2.9016 9.22435 2.74821C9.5398 2.64808 9.78708 2.39991 9.88513 2.08354L10.3242 0.720103C10.4596 0.288712 10.8614 -0.00420819 11.3143 4.5728e-05H13.6995C14.1504 0.00430646 14.5468 0.301501 14.6758 0.733955L15.1149 2.09739C15.214 2.40842 15.4559 2.65342 15.7671 2.75462ZM12.4931 7.00253C11.034 7.00253 9.63565 7.58199 8.60405 8.61308C7.57245 9.64416 6.99262 11.0417 6.99262 12.5C6.99262 13.9582 7.5724 15.3558 8.60405 16.3868C9.63571 17.4179 11.034 17.9974 12.4931 17.9974C13.9522 17.9974 15.3505 17.4179 16.3821 16.3868C17.4137 15.3558 17.9936 13.9582 17.9936 12.5C17.9925 11.0417 17.4127 9.64411 16.3821 8.61308C15.3505 7.58306 13.9522 7.0036 12.4931 7.00253Z" fill="#70B079"/>
</svg>
