<?xml version="1.0" encoding="UTF-8"?>
<svg id="Layer_2" data-name="Layer 2" xmlns="http://www.w3.org/2000/svg" viewBox="0 0 93.24 93.24">
  <defs>
    <style>
      .cls-1 {
        fill: #e56445;
      }

      .cls-2 {
        fill: #fff;
      }

      .cls-3 {
        fill: #edddd6;
      }

      .cls-4 {
        fill: #fca397;
      }

      .cls-5 {
        fill: #507849;
      }
    </style>
  </defs>
  <g id="Layer_1-2" data-name="Layer 1">
    <g>
      <path class="cls-3" d="M93.24,46.62c0,4.87-.74,9.57-2.13,13.98-2.12,6.74-5.72,12.82-10.43,17.85-.1,.12-.2,.23-.31,.34-.14,.15-.29,.3-.43,.44-8.46,8.64-20.26,14.01-33.32,14.01-2.02,0-4.03-.13-5.98-.37-.02-.01-.03-.01-.05-.01-4.8-.63-9.38-1.98-13.61-3.95-.35-.16-.7-.33-1.05-.5-6.89-3.41-12.81-8.49-17.24-14.7-.38-.54-.76-1.08-1.12-1.64-.9-1.36-1.72-2.77-2.46-4.22C1.84,61.48,0,54.27,0,46.62,0,20.87,20.87,0,46.62,0s46.62,20.87,46.62,46.62Z"/>
      <path class="cls-5" d="M80.68,78.45c-.1,.12-.2,.23-.31,.34-.14,.15-.29,.3-.43,.44-8.46,8.64-20.26,14.01-33.32,14.01-2.02,0-4.03-.13-5.98-.37-.02-.01-.03-.01-.05-.01-4.8-.63-9.38-1.98-13.61-3.95,.4-16.89,.23-31.67,.23-31.95,.16-.35,7.98-2.36,18.39-2.7,16.38-.52,30.22,8.72,35.08,24.19Z"/>
      <path class="cls-5" d="M40.64,92.87s-.03-.01-.05-.01c-4.8-.63-9.38-1.98-13.61-3.95-.35-.16-.7-.33-1.05-.5-6.89-3.41-12.81-8.49-17.24-14.7,8.98-12.31,16.32-15.9,18.52-16.75,.45-.18,.68-.24,.68-.24l12.75,36.15Z"/>
      <path class="cls-1" d="M46.8,26.86s10.76,.51,11.37-9.81c.65-10.99-9.52-12.04-13.84-7.6s-3.52,8.96-3.52,8.96c0,0-3.01-2.71-6.29,.62-2.41,2.45-1.17,6.44-1.17,6.44,0,0-5.55-.21-5.03,4.63,.52,4.85,3.98,7.31,3.98,7.31l14.49-10.56Z"/>
      <path class="cls-4" d="M36.96,45.86l1.12,11.44s2.38,3.09,9.13,2.98c5.02-.08,6.66-1.38,6.66-1.38l-1.26-5.72-1.24-5.58-12.34-1.48-2.07-.25Z"/>
      <path d="M39.03,46.11c.06,.31,.21,.67,.44,1.07,3.12,5.46,10.24,6.01,13.14,5.99l-1.24-5.58-12.34-1.48Z"/>
      <path class="cls-4" d="M51.37,21.27s7.41,13.75,5.82,21.95c-1.59,8.2-8.99,7.54-13.49,6.35-4.5-1.19-6.74-3.7-6.74-3.7,0,0-3.97,1.72-7.01-1.85-3.04-3.57-1.72-8.07,.53-9.26,2.25-1.19,5.16,.26,5.16,.26l-2.51-3.97s7.41-21.82,18.25-9.79Z"/>
      <path d="M35.77,41.28c-.08,0-.17-.02-.25-.07l-4.54-2.63c-.24-.14-.32-.44-.18-.68,.14-.24,.44-.32,.68-.18l4.54,2.63c.24,.14,.32,.44,.18,.68-.09,.16-.26,.25-.43,.25Z"/>
      <path d="M32.07,41.68c-.18,0-.35-.1-.44-.27-.13-.24-.03-.55,.21-.67l2.31-1.21c.24-.13,.55-.03,.67,.21,.13,.24,.03,.55-.21,.67l-2.31,1.21c-.07,.04-.15,.06-.23,.06Z"/>
      <path d="M53.38,26.66c-.1,0-.19-.03-.28-.09-1.28-.86-2.45-.04-2.5,0-.22,.16-.54,.11-.7-.11-.16-.22-.11-.53,.11-.7,.07-.05,1.78-1.27,3.65-.01,.23,.15,.29,.46,.14,.69-.1,.14-.25,.22-.41,.22Z"/>
      <path d="M51.84,39.68s-.06,0-.1,0c-.27-.05-.45-.32-.4-.59,.83-4.27-1.65-7.05-1.67-7.07-.19-.2-.17-.52,.03-.71,.2-.19,.52-.17,.71,.03,.12,.13,2.84,3.18,1.92,7.94-.05,.24-.26,.4-.49,.4Z"/>
      <path d="M53.39,33.41c-.27,0-.49-.21-.5-.48l-.12-2.73c-.01-.28,.2-.51,.48-.52,.28-.01,.51,.2,.52,.48l.12,2.73c.01,.28-.2,.51-.48,.52,0,0-.01,0-.02,0Z"/>
      <path d="M45.88,34.13c-.27,0-.49-.21-.5-.48l-.12-2.73c-.01-.28,.2-.51,.48-.52,.28-.02,.51,.2,.52,.48l.12,2.73c.01,.28-.2,.51-.48,.52,0,0-.01,0-.02,0Z"/>
      <path class="cls-1" d="M52.89,24.38s-1.47-2.18-4.32-1.92c-2.86,.26-4.32,2.43-4.32,2.43,0,0,1.72,4.68-1.91,7.61-3.63,2.93-6.7,2.51-6.7,2.51l-2.91-.73-2.47-3.91,7.28-9.57,9.99-6.59,5.85,4.35-.49,5.81Z"/>
      <path d="M49.47,42.61c-.98,0-2.69-.28-3.74-2.05-.14-.24-.06-.54,.17-.69,.24-.14,.54-.06,.69,.17,1.15,1.93,3.36,1.54,3.45,1.52,.27-.05,.53,.13,.58,.4,.05,.27-.12,.53-.39,.59-.04,0-.33,.06-.76,.06Z"/>
      <path class="cls-2" d="M56.4,37.53c-2.69,0-4.87-2.25-4.87-5.02s2.19-5.02,4.87-5.02,4.87,2.25,4.87,5.02-2.19,5.02-4.87,5.02Zm0-9.04c-2.14,0-3.87,1.8-3.87,4.02s1.74,4.02,3.87,4.02,3.87-1.8,3.87-4.02-1.74-4.02-3.87-4.02Z"/>
      <path class="cls-2" d="M44.82,38.65c-2.77,0-5.02-2.25-5.02-5.02s2.25-5.02,5.02-5.02,5.02,2.25,5.02,5.02-2.25,5.02-5.02,5.02Zm0-9.04c-2.22,0-4.02,1.8-4.02,4.02s1.8,4.02,4.02,4.02,4.02-1.8,4.02-4.02-1.8-4.02-4.02-4.02Z"/>
      <path class="cls-2" d="M48.86,33.61c-.26,0-.48-.2-.5-.46-.02-.27,.18-.52,.46-.54l3.54-.29c.28-.02,.52,.18,.54,.46,.02,.27-.18,.52-.46,.54l-3.54,.29s-.03,0-.04,0Z"/>
      <path class="cls-2" d="M32.72,34.79c-.12,0-.25-.05-.34-.14-.2-.19-.21-.51-.02-.71,2.69-2.86,7.94-.22,8.17-.1,.25,.13,.34,.43,.22,.67-.12,.25-.43,.34-.67,.22-.05-.02-4.81-2.41-6.98-.1-.1,.1-.23,.16-.36,.16Z"/>
      <path class="cls-2" d="M47.34,60.38c-3.23,0-6.98-.82-10.63-3.5-.22-.16-.27-.48-.11-.7,.16-.22,.48-.27,.7-.11,8.83,6.49,18.36,1.43,18.45,1.38,.24-.13,.55-.04,.68,.2,.13,.24,.04,.55-.2,.68-.06,.03-3.84,2.04-8.9,2.04Z"/>
      <path d="M42.34,28.28c-.09,0-.18-.02-.27-.08-.23-.15-.3-.45-.16-.69,1.37-2.18,3.5-2.02,4.43-1.62,.25,.11,.37,.4,.27,.65-.11,.26-.4,.37-.65,.27-.09-.04-1.95-.76-3.2,1.23-.1,.15-.26,.23-.42,.23Z"/>
    </g>
  </g>
</svg>