<?xml version="1.0" encoding="UTF-8"?>
<svg id="Layer_2" data-name="Layer 2" xmlns="http://www.w3.org/2000/svg" viewBox="0 0 93.25 93.24">
  <defs>
    <style>
      .cls-1 {
        fill: #fff;
      }

      .cls-2 {
        fill: #edddd6;
      }

      .cls-3 {
        fill: #fca397;
      }

      .cls-4 {
        fill: #507849;
      }
    </style>
  </defs>
  <g id="Layer_1-2" data-name="Layer 1">
    <path class="cls-2" d="M93.25,46.62c0,12.35-4.8,23.58-12.65,31.92-8.5,9.05-20.58,14.7-33.97,14.7-15.42,0-29.09-7.48-37.57-19.01C3.36,66.5,0,56.95,0,46.62,0,20.87,20.88,0,46.63,0s46.62,20.87,46.62,46.62Z"/>
    <path d="M43.07,19.68s6.27-8.78,22.33-.09c16.05,8.69,9.24,48.59,9.24,48.59l-30.21-3.89-1.36-44.61Z"/>
    <path class="cls-3" d="M48.33,42.99l.71,11.49s-1.79,3.42-8.21,4.36c-4.79,.7-6.47-1.78-6.47-1.78l.54-10.12,11.5-3.37,1.93-.57Z"/>
    <path d="M48.27,42.29c0,.32-.1,.69-.25,1.13-2.12,5.89-10.66,8.8-13.43,9.22l.31-5.71,13.37-4.64Z"/>
    <path class="cls-3" d="M30.81,20.89s-4.9,14.75-2.12,22.61,9.72,6.06,13.81,4.19c4.09-1.87,5.83-4.71,5.83-4.71,0,0,4.04,1.09,6.37-2.92,2.34-4,.38-8.25-1.94-9.07-2.32-.83-4.86,1.06-4.86,1.06l1.77-4.31s-10.43-20.44-18.86-6.86Z"/>
    <path d="M32.8,39.05c-.2,0-.39-.12-.47-.32-1.17-2.99,.65-6.28,.73-6.42,.13-.24,.44-.33,.68-.19,.24,.13,.33,.44,.19,.68-.02,.03-1.66,3.02-.67,5.57,.1,.26-.03,.55-.28,.65-.06,.02-.12,.03-.18,.03Z"/>
    <path d="M49.01,38.75c-.11,0-.21-.03-.3-.1-.22-.17-.26-.48-.09-.7l3.39-4.42c.17-.22,.48-.26,.7-.09,.22,.17,.26,.48,.09,.7l-3.39,4.42c-.1,.13-.25,.2-.4,.2Z"/>
    <path d="M52.86,37.32s-2.65-.19-2.65-.19c-.28-.02-.48-.26-.46-.54,.02-.28,.28-.49,.54-.46l2.61,.19c.28,.02,.48,.26,.46,.54-.02,.26-.24,.46-.5,.46Z"/>
    <path d="M29.15,27.58c-.22,0-.42-.15-.48-.37-.07-.27,.08-.54,.35-.61l2.4-.65c.27-.08,.54,.09,.61,.35,.07,.27-.08,.54-.35,.61l-2.4,.65s-.09,.02-.13,.02Z"/>
    <path d="M39.43,28.37s-.08,0-.12-.02l-3.4-.88c-.27-.07-.43-.34-.36-.61,.07-.27,.34-.43,.61-.36l3.4,.88c.27,.07,.43,.34,.36,.61-.06,.23-.26,.37-.48,.37Z"/>
    <path d="M29.66,33.44s-.07,0-.1-.01c-.27-.05-.45-.32-.39-.59l.49-2.39-.67-.71c-.19-.2-.18-.52,.02-.71,.2-.19,.52-.18,.71,.02l.84,.9c.11,.12,.16,.28,.12,.44l-.54,2.64c-.05,.24-.26,.4-.49,.4Z"/>
    <path d="M37.23,33.53s-.07,0-.1-.01c-.27-.06-.45-.32-.39-.59l.49-2.38-.98-1c-.19-.2-.19-.51,0-.71,.2-.19,.51-.19,.71,0l1.16,1.19c.12,.12,.17,.29,.13,.45l-.54,2.64c-.05,.24-.26,.4-.49,.4Z"/>
    <path class="cls-4" d="M34.21,59.11s-1.24-6.1,.37-6.47c1.61-.37,3.51,.68,7.26-.25,3.75-.93,5.71-2.34,6.91-2.4s.83,7.62,.83,7.62l-9.27,3.92-6.1-2.4Z"/>
    <path d="M53.42,31.34s-1.81-.65-3.15-.38c-1.36,.25-2.36,1.1-2.36,1.1l-1.66,2.31,.93-4.72s-1.21-.66-3.01-1.39l.62-4.07-1.66,3.67c-1.72-.64-3.79-1.26-5.84-1.48-1.11-.13-2.1-.18-2.96-.19l.55-4.43-1.66,4.44c-2.21,.06-3.33,.38-3.33,.38l-1.49,4.57s-.37-12.32,4.97-15.7c5.34-3.38,15.06-3.4,19.55,2.43,4.49,5.82,.51,13.48,.51,13.48Z"/>
    <path d="M36.61,42.1c-.25,0-.47-.19-.5-.45-.03-.27,.17-.52,.44-.55,.07,0,1.43-.21,2.43-2.14,.13-.24,.43-.34,.67-.21,.25,.13,.34,.43,.21,.67-1.27,2.43-3.13,2.66-3.21,2.67-.02,0-.04,0-.05,0Z"/>
    <path class="cls-4" d="M80.6,78.54c-8.5,9.05-20.58,14.7-33.97,14.7-15.42,0-29.09-7.48-37.57-19.01,4.2-5.2,13.28-14.67,25.29-17.18,15.7-3.29,37.98,.28,46.25,21.49Z"/>
    <path class="cls-1" d="M43.59,56.25c-.28,0-.5-.22-.5-.5s.22-.5,.5-.5c.03,0,2.65-.02,5.24-1.23,.25-.12,.55,0,.66,.24,.12,.25,0,.55-.24,.67-2.79,1.31-5.55,1.32-5.66,1.32Z"/>
  </g>
</svg>