<?xml version="1.0" encoding="UTF-8"?>
<svg id="Layer_2" data-name="Layer 2" xmlns="http://www.w3.org/2000/svg" viewBox="0 0 93.25 93.25">
  <defs>
    <style>
      .cls-1 {
        fill: #f49282;
      }

      .cls-2 {
        fill: #f7734f;
      }

      .cls-3 {
        fill: #edddd6;
      }

      .cls-4 {
        fill: #46467f;
      }

      .cls-5 {
        fill: #5c5cc6;
      }

      .cls-6 {
        fill: #7772d3;
      }
    </style>
  </defs>
  <g id="Layer_1-2" data-name="Layer 1">
    <g>
      <path class="cls-3" d="M93.25,46.63c0,6.01-1.14,11.76-3.21,17.04-1.61,4.12-3.8,7.94-6.48,11.39-.47,.62-.96,1.22-1.48,1.81-.36,.43-.73,.85-1.11,1.27-2.63,2.87-5.61,5.42-8.89,7.55-1,.65-2.02,1.27-3.07,1.84-6.65,3.65-14.27,5.72-22.39,5.72-9.54,0-18.4-2.87-25.79-7.78-.19-.13-.38-.26-.57-.4-1.7-1.15-3.32-2.42-4.84-3.81-.17-.15-.34-.3-.5-.46-.7-.64-1.37-1.3-2.02-1.98-.33-.35-.66-.7-.98-1.06-.04-.05-.09-.1-.13-.15C4.46,69.38,0,58.53,0,46.63,0,20.88,20.88,0,46.62,0s46.63,20.88,46.63,46.63Z"/>
      <path class="cls-2" d="M80.97,78.14c-2.63,2.87-5.61,5.42-8.89,7.55-1,.65-2.02,1.27-3.07,1.84-6.65,3.65-14.27,5.72-22.39,5.72-9.54,0-18.4-2.87-25.79-7.78-.19-.13-.38-.26-.57-.4-1.7-1.15-3.32-2.42-4.84-3.81-.17-.15-.34-.3-.5-.46-.7-.64-1.37-1.3-2.02-1.98,1.76-5.31,5.75-12.11,8.86-16.98,3.6-5.64,9.64-9.26,16.31-9.76,8.5-.62,18.93,.65,26.43,2.13,3.09,.61,5.86,2.81,7.71,6.11,2.58,4.6,6.3,11.6,8.76,17.82Z"/>
      <path class="cls-6" d="M58.17,12.92s-.41-2.63,2.1-1.56c2.51,1.08,1.44,3.71,0,3.35-1.44-.36-2.1-1.8-2.1-1.8Z"/>
      <path d="M63.03,29.55s-.39,7.1-3.59,7.43c-3.2,.33-7.9-3.72-7.9-3.72l2.2-8,9.29,4.28Z"/>
      <path class="cls-5" d="M38.62,27.53s-10.44-3.35-11.99-7.78,18.17,2.28,18.17,2.28l-6.17,5.51Z"/>
      <path class="cls-1" d="M53.74,42.74l-.81,11.29s-2.04,3.19-8.56,3.66c-4.86,.35-6.56-.76-6.56-.76l.73-5.64,.72-5.5,11.8-2.48,2.69-.57Z"/>
      <path d="M51.05,43.31c-.03,.3-.15,.66-.33,1.07-2.54,5.54-9.37,6.68-12.18,6.91l.72-5.5,11.8-2.48Z"/>
      <path class="cls-1" d="M36.99,20.37s-5.97,13.92-3.74,21.7,9.33,6.51,13.57,4.97c4.24-1.54,6.2-4.16,6.2-4.16,0,0,3.98,1.32,6.61-2.39,2.63-3.71,.97-7.94-1.31-8.9s-4.96,.7-4.96,.7l2.09-4.05s-9.03-20.44-18.47-7.89Z"/>
      <path d="M53.74,38.38c-.16,0-.31-.07-.41-.21-.16-.23-.11-.54,.12-.7l5.05-3.57c.22-.16,.54-.11,.7,.12,.16,.23,.11,.54-.12,.7l-5.05,3.57c-.09,.06-.19,.09-.29,.09Z"/>
      <path d="M58.31,38.36s-.09,0-.13-.02l-3.3-.88c-.27-.07-.43-.35-.35-.61,.07-.27,.34-.42,.61-.35l3.3,.88c.27,.07,.43,.35,.35,.61-.06,.22-.26,.37-.48,.37Z"/>
      <path d="M46.28,27.06c-.15,0-.3-.07-.4-.2-.43-.57-.92-.9-1.44-.97-.78-.1-1.43,.39-1.44,.39-.22,.17-.53,.13-.7-.09-.17-.22-.13-.53,.08-.7,.04-.03,.98-.76,2.17-.6,.8,.1,1.52,.56,2.12,1.36,.17,.22,.12,.53-.1,.7-.09,.07-.2,.1-.3,.1Z"/>
      <path d="M35.47,26.07c-.15,0-.29-.06-.39-.18-.17-.21-.14-.53,.07-.7,.67-.54,1.3-.76,1.85-.66,.6,.12,.87,.58,.9,.63,.13,.24,.04,.55-.2,.68-.24,.13-.54,.05-.67-.19-.01-.02-.08-.12-.23-.14-.14-.03-.46,0-1.02,.46-.09,.08-.2,.11-.32,.11Z"/>
      <path d="M37.43,37.62c-.22,0-.42-.15-.48-.37-.79-2.96,.32-5.98,.37-6.11,.1-.26,.39-.39,.64-.29,.26,.1,.39,.38,.29,.64,0,.03-1.05,2.86-.34,5.5,.07,.27-.09,.54-.35,.61-.04,.01-.09,.02-.13,.02Z"/>
      <path d="M35.48,31.41s-.09,0-.14-.02c-.27-.08-.42-.35-.35-.62l.72-2.55c.08-.27,.35-.42,.62-.35,.27,.08,.42,.35,.35,.62l-.72,2.55c-.06,.22-.26,.36-.48,.36Z"/>
      <path d="M43.65,31.63s-.09,0-.14-.02c-.27-.08-.42-.35-.35-.62l.72-2.55c.08-.27,.35-.42,.62-.35,.27,.08,.42,.35,.35,.62l-.72,2.55c-.06,.22-.26,.36-.48,.36Z"/>
      <path d="M36.2,22.39s.82-1.11,3.6-1.11c2.78,0,4.39,1.98,4.39,1.98,0,0,.23,5.04,3.99,7.56,3.76,2.52,5.2,1.48,5.2,1.48l2.75-.95,2.05-3.99-7.86-8.62-9.44-4.03-4.68,5.2v2.48Z"/>
      <path d="M40.24,40.86c-.18,0-.29-.01-.31-.01-.27-.03-.47-.27-.44-.55,.03-.27,.28-.48,.55-.45,.09,0,2.25,.19,3.19-1.76,.12-.25,.42-.35,.67-.23,.25,.12,.35,.42,.23,.67-1.02,2.12-3.08,2.33-3.88,2.33Z"/>
      <path class="cls-6" d="M35.84,19.32s3.94-11.19,17.9-8.8c13.96,2.4,9.29,20.14,9.29,20.14l-6.36-2.07-20.83-9.28Z"/>
      <path class="cls-5" d="M31.78,18.53s4.89,.18,17.48,6.01c4.34,2.01,8.13,4.36,8.13,4.36,0,0-14.5-6.09-20.13-6.02-2.16,.03-3.56,.84-3.56,.84l-1.91-5.18Z"/>
      <path class="cls-4" d="M42.07,58.07c-2.48,0-4.22-.4-4.38-.44-.27-.06-.43-.33-.37-.6,.06-.27,.33-.43,.6-.37,.08,.02,8.33,1.91,14.7-2.81,.22-.16,.54-.12,.7,.1,.17,.22,.12,.54-.1,.7-3.76,2.79-8.04,3.42-11.15,3.42Z"/>
    </g>
  </g>
</svg>