<?xml version="1.0" encoding="UTF-8"?>
<svg id="Layer_2" data-name="Layer 2" xmlns="http://www.w3.org/2000/svg" viewBox="0 0 93.25 93.25">
  <defs>
    <style>
      .cls-1 {
        fill: #f27e64;
      }

      .cls-2 {
        fill: #edddd6;
      }

      .cls-3 {
        fill: #46467f;
      }

      .cls-4 {
        fill: #7772d3;
      }
    </style>
  </defs>
  <g id="Layer_1-2" data-name="Layer 1">
    <g>
      <path class="cls-2" d="M93.25,46.63c0,7.08-1.58,13.78-4.4,19.79-7.44,15.85-23.55,26.83-42.22,26.83-16.05,0-30.2-8.1-38.59-20.44C2.97,65.35,0,56.34,0,46.63,0,20.88,20.88,0,46.63,0s46.62,20.88,46.62,46.63Z"/>
      <path d="M14.41,73.36s-7.62-2.29-5.3-13.44c2-9.61,14.59-11.08,14.59-11.08,0,0-3.96-5.94-.92-13.14,2.92-6.91,6.98-8.22,6.98-8.22,0,0-.35-5.6,4.07-9.99s10.42,.21,10.42,.21c0,0,11.4-2.48,18.44,3.57,7.04,6.06,4.31,16.48,4.31,16.48,0,0,11.2,4.04,13.93,15.89,2.73,11.84-4.34,18.2-4.34,18.2l-62.18,1.51Z"/>
      <path class="cls-4" d="M88.85,66.42c-7.44,15.85-23.55,26.83-42.22,26.83-16.05,0-30.2-8.1-38.59-20.44,8.09-10.77,18.18-18.58,30.64-19.68,19.21-1.69,31.28,2.02,43.98,8.83,1.94,1.04,4.04,2.56,6.19,4.46Z"/>
      <path class="cls-1" d="M52.79,46.92l.49,7.78s-2.79,2.67-6.55,2.94c-5.07,.37-7.1-2.31-7.1-2.31l-.44-10.25,13.59,1.84Z"/>
      <path d="M52.79,46.91s-2.1,7.55-8.42,5.97c-4.56-1.14-5.11-6.97-5.11-6.97l13.53,1Z"/>
      <path class="cls-1" d="M35.84,25.6s-1.92,14.08,2.98,20.5c4.9,6.42,10.68,4.14,13.2,1.96,3.41-2.93,3.93-6.77,3.93-6.77,0,0,4.95,.7,6.36-3.38,1.48-4.29-1.75-7.5-4.21-7.56s-2.72,.4-2.72,.4l.47-4.52s-15.79-15.71-20.01-.63Z"/>
      <path class="cls-1" d="M38.56,32s-7.59-2.76-7.85,3.02c-.3,6.69,7.65,6.31,7.65,6.31l.2-9.33Z"/>
      <path d="M56.6,31.13s-2.53,1.22-8.21-2.47c-5.68-3.69-4.36-8.49-4.36-8.49,0,0-7.21,5.09-8.56,11.02-1.35,5.94-3.16-13.61,5.33-13.69,8.49-.09,21.48,4.73,15.79,13.63Z"/>
      <path d="M35.17,38.26c-.16,0-.32-.08-.42-.22l-2.71-4.11c-.15-.23-.09-.54,.14-.69,.23-.15,.54-.09,.69,.14l2.71,4.11c.15,.23,.09,.54-.14,.69-.08,.06-.18,.08-.28,.08Z"/>
      <path d="M56.52,37.22c-.13,0-.26-.05-.36-.15-.19-.2-.18-.52,.02-.71l3.6-3.45c.2-.19,.51-.18,.71,.02,.19,.2,.18,.52-.02,.71l-3.6,3.45c-.1,.09-.22,.14-.35,.14Z"/>
      <path d="M60.04,37.63c-.1,0-.19-.03-.28-.08l-2.32-1.55c-.23-.15-.29-.46-.14-.69,.15-.23,.46-.29,.69-.14l2.32,1.55c.23,.15,.29,.46,.14,.69-.1,.14-.25,.22-.42,.22Z"/>
      <path d="M32.22,37.14c-.26,0-.48-.2-.5-.46-.02-.28,.19-.51,.46-.54l2.11-.15c.27-.03,.51,.19,.54,.46,.02,.28-.19,.51-.46,.54l-2.11,.15s-.02,0-.04,0Z"/>
      <path d="M43.92,40.05c-.23,0-.44-.16-.49-.39-.84-3.79,.29-6.91,.34-7.04,.1-.26,.38-.39,.64-.29,.26,.1,.39,.38,.29,.64-.01,.03-1.08,2.99-.3,6.47,.06,.27-.11,.54-.38,.6-.04,0-.07,.01-.11,.01Z"/>
      <path d="M45.8,43.91c-1.54,0-2.85-1.16-2.91-1.21-.14-.13-.2-.33-.15-.52,.06-.19,.21-.32,.41-.35l4.77-.7c.18-.02,.36,.05,.47,.2,.11,.15,.13,.34,.05,.51-.04,.08-.99,2.07-2.65,2.07Zm-1.17-1.28c.35,.16,.75,.28,1.17,.28,.46,0,.85-.29,1.15-.62l-2.32,.34Z"/>
      <path d="M38.96,28.83c-.14,0-.27-.05-.37-.16-.19-.2-.17-.52,.03-.71,1.03-.94,2.78-.97,2.85-.97,.28,0,.5,.22,.5,.5,0,.28-.22,.5-.5,.5-.01,0-1.44,.03-2.19,.71-.1,.09-.22,.13-.34,.13Z"/>
      <path d="M49.87,29.3c-.13,0-.25-.05-.35-.14-.72-.7-2.15-.77-2.17-.77-.28-.01-.49-.25-.48-.52,.01-.28,.24-.48,.52-.48,.07,0,1.82,.08,2.82,1.06,.2,.19,.2,.51,0,.71-.1,.1-.23,.15-.36,.15Z"/>
      <path class="cls-3" d="M46.1,58.5h-.07c-6.34-.03-7.65-3.72-7.7-3.88-.09-.26,.05-.54,.32-.63,.26-.09,.54,.05,.63,.31,.05,.14,1.18,3.17,6.76,3.19h.07c4.97,0,6.86-2.69,6.94-2.81,.16-.23,.47-.29,.69-.13,.23,.15,.29,.46,.14,.69-.09,.13-2.23,3.25-7.77,3.25Z"/>
      <path d="M35.48,31.19s-6.68-8.47-1.66-13.69,19.47-7.82,26.29,2.03c4.84,6.99-3.51,11.6-3.51,11.6l-9.28-9.52-3.28-1.44-5.48,1.44-3.08,9.58Z"/>
      <path d="M49.46,34.11c-.29,0-.51-.24-.5-.52l.07-2.14-1.33-.99c-.22-.17-.27-.48-.1-.7,.17-.22,.48-.27,.7-.1l1.54,1.15c.13,.1,.21,.25,.2,.42l-.08,2.4c0,.27-.23,.48-.5,.48Z"/>
      <path d="M40.66,34.11c-.29,0-.51-.24-.5-.52l.07-2.14-1.33-.99c-.22-.17-.27-.48-.1-.7,.17-.22,.48-.27,.7-.1l1.54,1.15c.13,.1,.21,.25,.2,.42l-.08,2.4c0,.27-.23,.48-.5,.48Z"/>
    </g>
  </g>
</svg>