<?xml version="1.0" encoding="UTF-8"?>
<svg id="Layer_2" data-name="Layer 2" xmlns="http://www.w3.org/2000/svg" viewBox="0 0 93.24 93.24">
  <defs>
    <style>
      .cls-1 {
        fill: #f7734f;
      }

      .cls-2 {
        fill: #edddd6;
      }

      .cls-3 {
        fill: #fca397;
      }

      .cls-4 {
        fill: #7772d3;
      }
    </style>
  </defs>
  <g id="Layer_1-2" data-name="Layer 1">
    <g>
      <path class="cls-2" d="M93.24,46.62c0,8.51-2.28,16.49-6.27,23.36-.15,.26-.31,.52-.47,.78-.37,.62-.76,1.24-1.17,1.84-.17,.25-.34,.5-.53,.75-6.08,8.71-15.08,15.21-25.56,18.16-.22,.06-.45,.12-.67,.18-3.81,1.01-7.82,1.55-11.95,1.55-16.11,0-30.32-8.17-38.67-20.6-.79-1.15-1.52-2.35-2.19-3.57C2.09,62.41,0,54.76,0,46.62,0,20.87,20.87,0,46.62,0s46.62,20.87,46.62,46.62Z"/>
      <path d="M26.64,40.27s-4.99-26.5,14.4-31.35c19.39-4.85,20.56,22.67,20.56,22.67,0,0,21.1,4.02,21.24,24.54,.17,25.65-24.61,21.33-24.61,21.33l-23.48-9.56s-23.52-12.81-8.1-27.63Z"/>
      <path class="cls-1" d="M84.8,73.35c-6.08,8.71-15.08,15.21-25.56,18.16-.22,.06-.45,.12-.67,.18-3.81,1.01-7.82,1.55-11.95,1.55-16.11,0-30.32-8.17-38.67-20.6,6.26-8.56,14.11-15.04,19.45-17.34,7.9-3.4,20.43-5.68,32-2.37,.03,.01,.07,.01,.11,.02,3.48,1,6.86,2.5,10.01,4.63,6.81,4.6,11.77,9.94,15.28,15.77Z"/>
      <path class="cls-3" d="M37.46,44.88v.28s.24,5.34,.24,5.34l.17,4.19s-.36,.97,4.52,.66c6.53-.45,8.64-3.25,8.64-3.25l.28-9.82-1.98,.38-11.86,2.22Z"/>
      <path d="M37.46,45.17l.24,5.34c3.17-.39,8.95-1.76,11.29-6.75,.18-.41,.3-.77,.34-1.07l-11.84,2.41-.02,.08Z"/>
      <path class="cls-3" d="M35.39,19.61s-6.08,13.9-3.89,21.72c2.19,7.81,9.31,6.58,13.56,5.07,4.26-1.51,6.23-4.12,6.23-4.12,0,0,3.98,1.35,6.64-2.35s1.02-7.95-1.25-8.92c-2.27-.97-4.97,.67-4.97,.67l2.12-4.04s-8.91-20.54-18.45-8.02Z"/>
      <path d="M37.28,17.55s-.44,7.4,7,10.76c7.44,3.36,12.41,2.7,12.41,2.7l-.48-9.65-9.32-10.12-8.33,2.65-1.29,3.66Z"/>
      <polygon points="51.22 29.54 51.25 33.75 55 30.05 51.22 29.54"/>
      <path class="cls-1" d="M86.5,70.76c-.37,.62-.76,1.24-1.17,1.84-.17,.25-.34,.5-.53,.75-6.08,8.71-15.08,15.21-25.56,18.16-.22,.06-.45,.12-.67,.18l.64-38.79s.07,.01,.19,.03c.03,.01,.07,.01,.11,.02,2.3,.39,17.37,3.37,25.46,15.23,.55,.79,1.05,1.66,1.53,2.58Z"/>
      <path class="cls-4" d="M40.98,55.93c-2.94,0-5.14-.53-5.32-.57-.27-.07-.43-.34-.37-.6,.07-.27,.34-.43,.6-.37,.09,.02,8.9,2.12,14.95-2.29,.22-.16,.54-.11,.7,.11,.16,.22,.11,.54-.11,.7-3.32,2.42-7.32,3.02-10.46,3.02Z"/>
      <path d="M33.67,24.69c-.21,0-.41-.14-.48-.35-.08-.26,.06-.54,.33-.63l2.77-.87c.26-.08,.54,.06,.63,.33,.08,.26-.06,.54-.33,.63l-2.77,.87s-.1,.02-.15,.02Z"/>
      <path d="M52.01,38.16c-.13,0-.27-.05-.37-.16-.19-.2-.17-.52,.03-.71l4.29-3.94c.2-.19,.52-.17,.71,.03,.19,.2,.17,.52-.03,.71l-4.29,3.94c-.1,.09-.22,.13-.34,.13Z"/>
      <path d="M56.35,37.64c-.07,0-.14-.01-.2-.04l-2.56-1.12c-.25-.11-.37-.41-.26-.66,.11-.25,.41-.37,.66-.26l2.56,1.12c.25,.11,.37,.41,.26,.66-.08,.19-.27,.3-.46,.3Z"/>
      <path d="M34.52,31.7s-.07,0-.1-.01c-.27-.06-.44-.32-.39-.59l.51-2.46-1-1.16c-.18-.21-.16-.52,.05-.71,.21-.18,.52-.16,.71,.05l1.17,1.35c.1,.12,.14,.28,.11,.43l-.56,2.7c-.05,.24-.26,.4-.49,.4Z"/>
      <path d="M42.91,32.13s-.07,0-.1-.01c-.27-.06-.44-.32-.39-.59l.51-2.46-1-1.16c-.18-.21-.16-.52,.05-.71,.21-.18,.52-.16,.71,.05l1.17,1.35c.1,.12,.14,.28,.11,.43l-.56,2.7c-.05,.24-.26,.4-.49,.4Z"/>
      <path d="M36.18,37.8c-.23,0-.44-.16-.49-.4-.93-4.45,1.22-6.69,1.31-6.78,.19-.2,.51-.2,.71,0,.2,.19,.2,.51,0,.71-.08,.09-1.86,1.99-1.05,5.87,.06,.27-.12,.54-.39,.59-.03,0-.07,.01-.1,.01Z"/>
      <path d="M40.7,42.08c-.3,0-1.01-.14-2.49-1.78-.17-.19-.23-.45-.17-.69,.07-.25,.27-.45,.53-.53,3.57-1.07,4.05-.7,4.26-.55,.18,.13,.45,.46,.25,1.12-.27,.91-1.41,2.36-2.29,2.41-.02,0-.05,0-.09,0Zm-1.46-2.14c.8,.83,1.37,1.13,1.49,1.14,.09,0,.42-.2,.83-.72,.35-.44,.53-.83,.58-1.03-.29,.03-1.17,.1-2.9,.6Z"/>
      <path class="cls-4" d="M24.04,70.54c-.05,.06-4.83,5.18-3.92,14.39-.29-.18-.56-.38-.84-.58-.08-.05-.15-.11-.23-.17-.59-9.14,4.21-14.25,4.27-14.32,.19-.2,.5-.2,.71-.02,.2,.19,.2,.51,0,.71Z"/>
    </g>
  </g>
</svg>