<?xml version="1.0" encoding="UTF-8"?>
<svg id="Layer_2" data-name="Layer 2" xmlns="http://www.w3.org/2000/svg" viewBox="0 0 93.25 93.25">
  <defs>
    <style>
      .cls-1 {
        fill: #f7734f;
      }

      .cls-2 {
        fill: #edddd6;
      }

      .cls-3 {
        fill: #ffbf69;
      }

      .cls-4 {
        fill: #fca397;
      }

      .cls-5 {
        fill: #46467f;
      }

      .cls-6 {
        fill: #7c6053;
      }
    </style>
  </defs>
  <g id="Layer_1-2" data-name="Layer 1">
    <g>
      <path class="cls-2" d="M93.25,46.63c0,9.91-3.09,19.1-8.37,26.65-2.91,4.19-6.51,7.88-10.62,10.89-.02,.03-.05,.04-.07,.06-.27,.2-.54,.4-.82,.58-5.06,3.56-10.86,6.13-17.12,7.44-3.1,.66-6.32,1-9.62,1-7.57,0-14.71-1.8-21.03-5.01-3.65-1.84-7.02-4.15-10.04-6.85-1.62-1.46-3.15-3.02-4.56-4.69-2.31-2.73-4.31-5.72-5.95-8.93C1.82,61.42,0,54.24,0,46.63,0,20.88,20.88,0,46.63,0s46.62,20.88,46.62,46.63Z"/>
      <path class="cls-5" d="M84.88,73.28c-2.93,4.21-6.55,7.92-10.69,10.95-5.25,3.86-11.34,6.64-17.94,8.02,.04-8.65,.52-15.52,.52-15.52,0,0,14.54-20.96,14.74-20.79,1.57,1.29,7.51,6.45,13.37,17.34Z"/>
      <path class="cls-5" d="M74.19,84.23c-5.25,3.86-11.34,6.64-17.94,8.02-3.1,.66-6.32,1-9.62,1-7.57,0-14.71-1.8-21.03-5.01-3.65-1.84-7.02-4.15-10.04-6.85-1.62-1.46-3.15-3.02-4.56-4.69,2.85-9.68,9.1-17.04,10.97-19.16,.47-.54,1.01-1.03,1.59-1.48,.01-.02,.03-.02,.04-.03,2.43-1.89,5.68-3.11,8.89-3.91,.03,0,.05-.01,.06-.01,3.92-.96,7.75-1.29,9.94-1.4,1.17-.06,1.87-.06,1.87-.06,0,0,6.02,.59,12.52,1.61,5.81,.91,12,2.16,14.61,3.66,.13,.08,.24,.21,.35,.38,1.47,2.38,2.12,14.16,2.35,27.93Z"/>
      <path d="M32.56,29.27s.39,7,3.54,7.32c3.15,.32,7.78-3.66,7.78-3.66l-2.17-7.87-9.15,4.22Z"/>
      <path class="cls-4" d="M41.65,42.34l.15,10.98s2.11,3.15,8.84,3.64c5.01,.37,6.76-.72,6.76-.72l-.77-5.56-.76-5.42-12.17-2.5-2.04-.42Z"/>
      <path d="M44.36,42.82c.03,.3,.15,.65,.33,1.06,2.5,5.46,9.23,6.58,11.99,6.8l-.71-5.41-11.61-2.45Z"/>
      <path class="cls-4" d="M58.2,20.23s5.88,13.71,3.68,21.37-9.19,6.41-13.37,4.9-6.1-4.09-6.1-4.09c0,0-3.92,1.3-6.51-2.35-2.59-3.65-.95-7.82,1.29-8.76,2.24-.94,4.88,.69,4.88,.69l-2.05-3.99s8.89-20.13,18.18-7.77Z"/>
      <path d="M41.71,37.98c-.1,0-.2-.03-.29-.09l-4.98-3.51c-.23-.16-.28-.47-.12-.7,.16-.23,.47-.28,.7-.12l4.98,3.51c.23,.16,.28,.47,.12,.7-.1,.14-.25,.21-.41,.21Z"/>
      <path d="M37.2,37.96c-.22,0-.42-.15-.48-.37-.07-.27,.09-.54,.35-.61l3.25-.87c.26-.06,.54,.09,.61,.35,.07,.27-.09,.54-.35,.61l-3.25,.87s-.09,.02-.13,.02Z"/>
      <path d="M48.71,26.87c-.09,0-.18-.02-.26-.07-.24-.14-.31-.45-.17-.69,1.27-2.13,3.32-2.01,4.23-1.65,.26,.1,.38,.39,.28,.65-.1,.26-.39,.38-.65,.28-.08-.03-1.86-.68-3,1.24-.09,.16-.26,.24-.43,.24Z"/>
      <path d="M59.69,25.56c-.11,0-.22-.04-.31-.11-1.13-.92-2.3-.25-2.35-.22-.24,.14-.54,.06-.68-.17-.14-.24-.07-.54,.17-.68,.07-.04,1.81-1.06,3.49,.3,.21,.17,.25,.49,.07,.7-.1,.12-.24,.18-.39,.18Z"/>
      <path d="M57.77,37.23s-.09,0-.13-.02c-.27-.07-.43-.35-.35-.61,.69-2.58-1.12-6.46-1.14-6.5-.12-.25-.01-.55,.24-.67,.25-.12,.55-.01,.67,.24,.08,.17,1.99,4.25,1.2,7.19-.06,.22-.26,.37-.48,.37Z"/>
      <path d="M58.69,30.83c-.22,0-.42-.14-.48-.36l-.71-2.51c-.08-.27,.08-.54,.35-.62,.26-.07,.54,.08,.62,.35l.71,2.51c.08,.27-.08,.54-.35,.62-.05,.01-.09,.02-.14,.02Z"/>
      <path d="M51.28,31.03c-.22,0-.42-.14-.48-.36l-.71-2.51c-.08-.27,.08-.54,.35-.62,.26-.07,.54,.08,.62,.35l.71,2.51c.08,.27-.08,.54-.35,.62-.05,.01-.09,.02-.14,.02Z"/>
      <path d="M58.98,22.22s-.81-1.1-3.55-1.09-4.32,1.95-4.32,1.95c0,0-.23,4.96-3.93,7.44-3.7,2.48-5.12,1.46-5.12,1.46l-2.71-.94-2.02-3.93,7.74-8.49,9.3-3.97,4.61,5.12v2.44Z"/>
      <path d="M55,40.42c-.78,0-2.82-.21-3.82-2.3-.12-.25-.01-.55,.23-.67,.25-.12,.55-.01,.67,.23,.92,1.92,3.04,1.73,3.13,1.72,.28-.03,.52,.17,.55,.45,.03,.27-.17,.52-.44,.55-.02,0-.13,.01-.31,.01Z"/>
      <path class="cls-6" d="M34.09,35.72c-1.92-1.96-3.51-6.79-3.12-9.51l.08-.55s-3.18-.35-2.12-4.59c1.06-4.24,6.47-9.9,14.92-12.03,8.45-2.12,15.14,10.74,15.14,10.74,0,0-7.06-.37-12.37,3.64-5.31,4.01-7.25,7.62-7.25,7.62l-5.27,4.67Z"/>
      <path class="cls-1" d="M52.74,57.32c-6.66,0-11.69-3.35-11.95-3.52-.23-.16-.29-.47-.13-.69,.16-.23,.47-.29,.69-.13,.07,.05,7.48,4.97,15.92,2.78,.27-.07,.54,.09,.61,.36s-.09,.54-.36,.61c-1.65,.43-3.26,.6-4.78,.6Z"/>
      <path class="cls-3" d="M30.97,26.71c-.08,0-.17-.02-.25-.07-.24-.14-.32-.44-.19-.68l1.59-2.79c.14-.24,.44-.32,.68-.19,.24,.14,.32,.44,.19,.68l-1.59,2.79c-.09,.16-.26,.25-.43,.25Z"/>
      <path class="cls-1" d="M74.26,84.17s-.05,.04-.07,.06c-.27,.2-.54,.4-.82,.58l-2.56-12.76c-.05-.27,.12-.54,.39-.59,.27-.06,.54,.12,.59,.39l2.47,12.32Z"/>
    </g>
  </g>
</svg>