<svg width="208" height="60" viewBox="0 0 208 60" fill="none" xmlns="http://www.w3.org/2000/svg">
<path d="M45.552 18.16H40.24C40.24 15.1733 41.3493 13.68 43.568 13.68H45.552V10.992C45.552 9.11466 46.1067 7.38667 47.216 5.808C48.3253 4.22933 49.8187 2.97066 51.696 2.032C53.5733 1.09333 55.6213 0.623997 57.84 0.623997C60.4427 0.623997 62.8107 1.008 64.944 1.776C67.0773 2.50133 68.848 3.568 70.256 4.976V36.976C70.256 38.6827 70.5973 39.8987 71.28 40.624C71.9627 41.3067 73.1147 41.648 74.736 41.648C76.3147 41.648 77.744 41.264 79.024 40.496C79.5787 41.136 79.856 41.8827 79.856 42.736C79.856 43.8027 79.28 44.72 78.128 45.488C77.0187 46.2133 75.632 46.576 73.968 46.576C71.0667 46.576 68.784 45.7653 67.12 44.144C65.4987 42.48 64.688 40.1547 64.688 37.168V18.16H51.12V42.48C51.12 43.888 50.672 44.9333 49.776 45.616C48.88 46.256 47.472 46.576 45.552 46.576V18.16ZM64.688 13.68V7.152C63.664 6.55466 62.64 6.128 61.616 5.872C60.592 5.616 59.3547 5.488 57.904 5.488C55.8133 5.488 54.1493 6.02133 52.912 7.088C51.7173 8.112 51.12 9.52 51.12 11.312V13.68H64.688ZM79.501 59.312C76.8557 59.312 75.469 57.776 75.341 54.704C76.621 54.8747 77.5383 54.96 78.093 54.96C79.9703 54.96 81.4637 54.4053 82.573 53.296C83.725 52.1867 84.8983 50.2667 86.093 47.536L87.373 44.656L74.765 13.872C75.0637 13.744 75.4477 13.6373 75.917 13.552C76.429 13.4667 76.8557 13.424 77.197 13.424C78.093 13.4667 78.9037 13.7227 79.629 14.192C80.3543 14.6187 80.8663 15.1947 81.165 15.92L89.741 37.808L88.845 40.368L89.229 40.56L98.957 15.92C99.2557 15.152 99.7463 14.5547 100.429 14.128C101.154 13.6587 101.965 13.424 102.861 13.424C103.245 13.424 103.672 13.4667 104.141 13.552C104.653 13.6373 105.037 13.744 105.293 13.872L90.893 49.136C89.485 52.5493 87.9063 55.088 86.157 56.752C84.4077 58.4587 82.189 59.312 79.501 59.312ZM118.117 46.576C115.003 46.576 112.677 45.7227 111.141 44.016C109.605 42.2667 108.837 39.984 108.837 37.168V4.72C108.837 3.312 109.285 2.288 110.181 1.648C111.12 0.965331 112.528 0.623997 114.405 0.623997V36.976C114.405 38.64 114.747 39.8347 115.429 40.56C116.112 41.2853 117.243 41.648 118.821 41.648C120.4 41.648 121.851 41.264 123.173 40.496C123.728 41.136 124.005 41.8827 124.005 42.736C124.005 43.76 123.472 44.656 122.405 45.424C121.339 46.192 119.909 46.576 118.117 46.576ZM138.112 46.576C135.509 46.576 133.184 46.0853 131.136 45.104C129.088 44.08 127.488 42.6933 126.336 40.944C125.184 39.152 124.608 37.1467 124.608 34.928V25.456C124.608 23.1947 125.205 21.1467 126.4 19.312C127.637 17.4773 129.28 16.048 131.328 15.024C133.418 13.9573 135.68 13.424 138.112 13.424C140.544 13.424 142.762 13.936 144.768 14.96C146.816 15.984 148.416 17.392 149.568 19.184C150.762 20.976 151.36 23.0027 151.36 25.264V29.36C151.36 30.0427 151.104 30.6187 150.592 31.088C150.08 31.5573 149.461 31.792 148.736 31.792H130.048V34.672C130.048 36.848 130.73 38.5973 132.096 39.92C133.504 41.2427 135.509 41.904 138.112 41.904C140.714 41.904 142.698 41.328 144.064 40.176C145.429 39.024 146.112 37.4667 146.112 35.504C147.392 35.4187 148.458 35.6747 149.312 36.272C150.208 36.8267 150.656 37.6587 150.656 38.768C150.656 40.1333 150.058 41.4133 148.864 42.608C147.712 43.8027 146.176 44.7627 144.256 45.488C142.336 46.2133 140.288 46.576 138.112 46.576ZM146.176 27.44V25.264C146.176 23.1307 145.429 21.4027 143.936 20.08C142.485 18.7147 140.544 18.032 138.112 18.032C135.68 18.032 133.717 18.7147 132.224 20.08C130.773 21.4027 130.048 23.1307 130.048 25.264V27.44H146.176ZM166.514 46.576C162.845 46.576 159.879 45.5947 157.618 43.632C155.399 41.6693 154.29 39.088 154.29 35.888C154.29 32.6453 155.463 30.0427 157.81 28.08C160.157 26.0747 163.25 25.072 167.09 25.072C171.186 25.072 174.557 26.5227 177.202 29.424L177.458 29.168C176.989 28.656 176.455 28.1227 175.858 27.568V24.88C175.858 22.704 175.175 21.0187 173.81 19.824C172.445 18.6293 170.503 18.032 167.986 18.032C163.506 18.032 160.306 19.8027 158.386 23.344C157.703 23.0027 157.127 22.5547 156.658 22C156.231 21.4027 156.018 20.8053 156.018 20.208C156.018 19.056 156.594 17.968 157.746 16.944C158.898 15.8773 160.413 15.024 162.29 14.384C164.21 13.744 166.215 13.424 168.306 13.424C172.359 13.424 175.538 14.4267 177.842 16.432C180.189 18.4373 181.362 21.2107 181.362 24.752V42.288C181.362 43.7813 180.935 44.8693 180.082 45.552C179.229 46.2347 177.885 46.576 176.05 46.576V43.568C176.946 42.6293 177.437 42.0747 177.522 41.904L177.266 41.648C174.493 44.9333 170.909 46.576 166.514 46.576ZM167.474 42.16C170.119 42.16 172.189 41.6053 173.682 40.496C175.218 39.3867 175.986 37.8507 175.986 35.888C175.986 33.9253 175.239 32.368 173.746 31.216C172.253 30.064 170.205 29.488 167.602 29.488C165.17 29.488 163.25 30.064 161.842 31.216C160.477 32.3253 159.794 33.8827 159.794 35.888C159.794 37.8933 160.455 39.4507 161.778 40.56C163.143 41.6267 165.042 42.16 167.474 42.16ZM189.887 18.48H184.575C184.575 15.4933 185.684 14 187.903 14H189.887V10.096C189.887 7.32266 190.676 5.06133 192.255 3.312C193.834 1.52 196.202 0.623997 199.359 0.623997C201.151 0.623997 202.538 1.02933 203.519 1.84C204.5 2.608 204.991 3.504 204.991 4.528C204.991 5.424 204.714 6.14933 204.159 6.704C202.836 5.936 201.407 5.552 199.871 5.552C198.292 5.552 197.162 5.936 196.479 6.704C195.796 7.472 195.455 8.688 195.455 10.352V14H203.455C203.455 15.536 203.114 16.6667 202.431 17.392C201.791 18.1173 200.788 18.48 199.423 18.48H195.455V42.48C195.455 43.888 194.986 44.9333 194.047 45.616C193.151 46.256 191.764 46.576 189.887 46.576V18.48Z" fill="#40342B"/>
<path d="M0 5C0 2.79086 1.79086 1 4 1H29C31.2091 1 33 2.79086 33 5V45.5767C33 46.4688 31.9202 46.9144 31.291 46.2819L16.5 31.4118L1.70899 46.2819C1.0798 46.9144 0 46.4688 0 45.5767V5Z" fill="#70B079"/>
</svg>
